<?xml version="1.0" standalone="no"?>
<!DOCTYPE svg PUBLIC "-//W3C//DTD SVG 20010904//EN"
 "http://www.w3.org/TR/2001/REC-SVG-20010904/DTD/svg10.dtd">
<svg version="1.0" xmlns="http://www.w3.org/2000/svg"
 width="16.000000pt" height="16.000000pt" viewBox="0 0 16.000000 16.000000"
 preserveAspectRatio="xMidYMid meet">
<metadata>
Created by potrace 1.11, written by Peter Selinger 2001-2013
</metadata>
<g transform="translate(0.000000,16.000000) scale(0.012800,-0.012800)"
fill="#000000" stroke="none">
<path d="M496 1193 c-269 -62 -459 -316 -443 -593 29 -502 628 -732 986 -379
63 62 118 151 144 234 32 101 31 252 -2 353 -94 287 -390 453 -685 385z m308
-39 c74 -26 93 -36 169 -93 55 -40 131 -135 158 -197 67 -148 65 -330 -3 -474
-24 -50 -86 -136 -118 -163 -88 -74 -184 -123 -281 -142 -47 -10 -175 -6 -224
6 -209 51 -387 238 -419 443 -8 48 -9 153 -2 186 3 14 8 39 12 55 12 59 78
176 128 228 119 124 244 177 411 175 76 0 115 -6 169 -24z"/>
<path d="M649 981 c-20 -20 -29 -39 -29 -61 0 -43 47 -90 90 -90 43 0 90 47
90 90 0 22 -9 41 -29 61 -40 39 -82 39 -122 0z"/>
<path d="M458 984 c-67 -36 -46 -140 32 -162 23 -7 28 -11 15 -12 -124 -10
-203 -35 -229 -72 -9 -12 -16 -25 -16 -28 0 -15 64 -40 111 -43 l54 -4 -1 -84
c-1 -46 -3 -120 -4 -164 -4 -149 -2 -163 21 -170 31 -10 41 6 42 74 1 34 6 61
10 61 5 0 7 -8 6 -17 -1 -10 -1 -42 0 -70 1 -49 3 -53 25 -53 15 0 27 7 30 18
12 44 19 92 22 162 2 41 5 86 7 100 3 14 8 51 12 82 5 37 13 59 23 63 8 3 16
4 18 3 7 -8 15 -102 18 -236 5 -156 13 -192 46 -192 16 0 20 7 22 33 0 17 2
37 3 42 2 6 4 28 6 50 2 25 5 11 8 -40 6 -73 8 -80 29 -83 12 -2 24 3 27 10 9
24 13 102 14 255 l1 152 53 0 c54 0 100 12 112 30 27 45 -71 99 -214 117 -31
4 -63 8 -71 10 -8 1 -49 3 -90 3 -73 1 -74 1 -50 18 39 27 49 45 45 83 -8 67
-75 98 -137 64z"/>
</g>
</svg>
